<svg xmlns="http://www.w3.org/2000/svg" viewBox="0 0 64 64" fill="none" shape-rendering="auto"><metadata xmlns:rdf="http://www.w3.org/1999/02/22-rdf-syntax-ns#" xmlns:xsi="http://www.w3.org/2001/XMLSchema-instance" xmlns:dc="http://purl.org/dc/elements/1.1/" xmlns:dcterms="http://purl.org/dc/terms/"><rdf:RDF><rdf:Description><dc:title>Personas by Draftbit</dc:title><dc:creator>Draftbit - draftbit.com</dc:creator><dc:source xsi:type="dcterms:URI">https://personas.draftbit.com/</dc:source><dcterms:license xsi:type="dcterms:URI">https://creativecommons.org/licenses/by/4.0/</dcterms:license><dc:rights>Remix of „Personas by Draftbit” (https://personas.draftbit.com/) by „Draftbit - draftbit.com”, licensed under „CC BY 4.0” (https://creativecommons.org/licenses/by/4.0/)</dc:rights></rdf:Description></rdf:RDF></metadata><mask id="viewboxMask"><rect width="64" height="64" rx="0" ry="0" x="0" y="0" fill="#fff" /></mask><g mask="url(#viewboxMask)"><path d="M37 46.08V52a5 5 0 0 1-10 0v-5.92A14.04 14.04 0 0 1 18.58 37h-.08a4.5 4.5 0 0 1-.5-8.97V27a14 14 0 1 1 28 0v1.03a4.5 4.5 0 0 1-.58 8.97A14.04 14.04 0 0 1 37 46.08Z" fill="#623d20"/><mask id="personas-a" style="mask-type:luminance" maskUnits="userSpaceOnUse" x="14" y="13" width="36" height="44"><path d="M37 46.08V52a5 5 0 0 1-10 0v-5.92A14.04 14.04 0 0 1 18.58 37h-.08a4.5 4.5 0 0 1-.5-8.97V27a14 14 0 1 1 28 0v1.03a4.5 4.5 0 0 1-.58 8.97A14.04 14.04 0 0 1 37 46.08Z" fill="#fff"/></mask><g mask="url(#personas-a)"><path d="M32 13a14 14 0 0 1 14 14v6a14 14 0 1 1-28 0v-6a14 14 0 0 1 14-14Z" fill="#fff" style="mix-blend-mode:overlay" opacity=".36"/></g><g transform="translate(20 24)"><path d="M6 6a1.5 1.5 0 1 0 0-3 1.5 1.5 0 0 0 0 3ZM18 6a1.5 1.5 0 1 0 0-3 1.5 1.5 0 0 0 0 3Z" fill="#1B0640"/><path d="M9 2H3v6h6V2ZM21 2h-6v6h6V2Z" opacity=".3" fill="#fff"/><path fill-rule="evenodd" clip-rule="evenodd" d="M11 1.05h2c.65 0 1.21-.2 1.84-.42C15.66.33 16.6 0 18 0c1.67 0 3.33.35 5 1.05l1 .53v1.58l-1 .52v3.16A3.08 3.08 0 0 1 20 10h-4c-1.66 0-3-1.41-3-3.16V3.16h-2v3.68A3.08 3.08 0 0 1 8 10H4c-1.66 0-3-1.41-3-3.16V3.68l-1-.52V1.58l1-.53A12.8 12.8 0 0 1 6 0c1.4 0 2.34.33 3.16.63.63.22 1.19.42 1.84.42ZM8.24 2.52A6.1 6.1 0 0 0 6 2.11c-1 0-2 .14-3 .44v4.3c0 .57.45 1.04 1 1.04h4c.55 0 1-.47 1-1.05V2.8l-.76-.27ZM15 2.8l.76-.27A6.1 6.1 0 0 1 18 2.11c1 0 2 .14 3 .44v4.3c0 .57-.45 1.04-1 1.04h-4c-.55 0-1-.47-1-1.05V2.8Z" fill="#1B0640"/></g><g transform="translate(2 2)"><path d="m44 26-.02-.02-.3.02a2 2 0 0 1-1.8-2.88 2 2 0 0 1-2.73-2.1 2 2 0 0 1-3.3.56h-.02a1.99 1.99 0 0 1-2 2.05 2 2 0 0 1-1.75-1.04 2 2 0 0 1-3.92.33 2 2 0 0 1-3.87-.6c-.04 0-.09 0-.13-.02a2 2 0 0 1-3.67-.98c-.3-.1-.57-.2-.85-.32.02.09.02.17.02.26a2 2 0 0 1-2.74 1.86A2 2 0 0 1 16 25.8v.23a4.5 4.5 0 0 0 .58 8.97A14.04 14.04 0 0 0 25 44.08v3.06c-.25-.2-.47-.42-.65-.68-.49-.13-.96-.29-1.43-.46a3.46 3.46 0 0 1-4.54-2.3 20.9 20.9 0 0 1-.98-.7 3.46 3.46 0 0 1-3.83-3.8c-.17-.21-.34-.43-.5-.66a3.46 3.46 0 0 1-2.66-5.07l-.14-.39a3.47 3.47 0 0 1-1.08-5.96v-.01a3.47 3.47 0 0 1 .47-6.2 3.47 3.47 0 0 1 2.28-5.79 3.47 3.47 0 0 1 3.87-4.86 3.47 3.47 0 0 1 5.15-3.5 3.47 3.47 0 0 1 5.94-1.83 3.47 3.47 0 0 1 6.22 0 3.47 3.47 0 0 1 5.94 1.83 3.47 3.47 0 0 1 5.14 3.5 3.47 3.47 0 0 1 3.87 4.86 3.47 3.47 0 0 1 2.28 5.8 3.47 3.47 0 0 1 .47 6.19 3.47 3.47 0 0 1-1.08 5.97l-.14.4a3.47 3.47 0 0 1-2.66 5.06c-.16.23-.33.45-.5.66A3.46 3.46 0 0 1 42.6 43l-.98.7a3.46 3.46 0 0 1-4.54 2.3c-.47.17-.94.33-1.43.46-.18.26-.4.49-.65.68v-3.06A14.04 14.04 0 0 0 43.42 35h.08a4.5 4.5 0 0 0 .5-8.97V26Z" fill="#000000"/><mask id="hairCurly-a" style="mask-type:luminance" maskUnits="userSpaceOnUse" x="7" y="3" width="46" height="45"><path d="m44 26-.02-.02-.3.02a2 2 0 0 1-1.8-2.88 2 2 0 0 1-2.73-2.1 2 2 0 0 1-3.3.56h-.02a1.99 1.99 0 0 1-2 2.05 2 2 0 0 1-1.75-1.04 2 2 0 0 1-3.92.33 2 2 0 0 1-3.87-.6c-.04 0-.09 0-.13-.02a2 2 0 0 1-3.67-.98c-.3-.1-.57-.2-.85-.32.02.09.02.17.02.26a2 2 0 0 1-2.74 1.86A2 2 0 0 1 16 25.8v.23a4.5 4.5 0 0 0 .58 8.97A14.04 14.04 0 0 0 25 44.08v3.06c-.25-.2-.47-.42-.65-.68-.49-.13-.96-.29-1.43-.46a3.46 3.46 0 0 1-4.54-2.3 20.9 20.9 0 0 1-.98-.7 3.46 3.46 0 0 1-3.83-3.8c-.17-.21-.34-.43-.5-.66a3.46 3.46 0 0 1-2.66-5.07l-.14-.39a3.47 3.47 0 0 1-1.08-5.96v-.01a3.47 3.47 0 0 1 .47-6.2 3.47 3.47 0 0 1 2.28-5.79 3.47 3.47 0 0 1 3.87-4.86 3.47 3.47 0 0 1 5.15-3.5 3.47 3.47 0 0 1 5.94-1.83 3.47 3.47 0 0 1 6.22 0 3.47 3.47 0 0 1 5.94 1.83 3.47 3.47 0 0 1 5.14 3.5 3.47 3.47 0 0 1 3.87 4.86 3.47 3.47 0 0 1 2.28 5.8 3.47 3.47 0 0 1 .47 6.19 3.47 3.47 0 0 1-1.08 5.97l-.14.4a3.47 3.47 0 0 1-2.66 5.06c-.16.23-.33.45-.5.66A3.46 3.46 0 0 1 42.6 43l-.98.7a3.46 3.46 0 0 1-4.54 2.3c-.47.17-.94.33-1.43.46-.18.26-.4.49-.65.68v-3.06A14.04 14.04 0 0 0 43.42 35h.08a4.5 4.5 0 0 0 .5-8.97V26Z" fill="#fff"/></mask><g mask="url(#hairCurly-a)"><path fill="#fff" d="M7 3h46v44H7z" style="mix-blend-mode:overlay" opacity=".26"/></g></g><g transform="translate(11 44)"><path d="M32 20H10v-8a11 11 0 0 1 6-9.8V4a5 5 0 0 0 10 0V2.2a11 11 0 0 1 6 9.8v8Z" fill="#f3b63a"/><mask id="bodySmall-a" style="mask-type:luminance" maskUnits="userSpaceOnUse" x="10" y="2" width="22" height="18"><path d="M32 20H10v-8a11 11 0 0 1 6-9.8V4a5 5 0 0 0 10 0V2.2a11 11 0 0 1 6 9.8v8Z" fill="#fff"/></mask><g mask="url(#bodySmall-a)"><path opacity=".14" d="M20.62 8.25 22 8l1.2.5L10 15l10.62-6.75Z" fill="#000"/><path d="M21 1h11v47H10V15l13.34-6.58L21 1Z" fill="#fff" style="mix-blend-mode:overlay" opacity=".26"/></g></g><g transform="translate(23 36)"><path d="M5 5.87a1 1 0 1 1 1-1.74A6 6 0 0 0 9 5a6 6 0 0 0 3-.87 1 1 0 1 1 1 1.74A8 8 0 0 1 9 7a8 8 0 0 1-4-1.13Z" fill="#1B0640"/></g><g transform="translate(24 28)"><path opacity=".12" fill-rule="evenodd" clip-rule="evenodd" d="M11.72 5.3c.21.73.27 1.38.2 1.95a20.24 20.24 0 0 1 2.12 4.41.5.5 0 1 0 .94-.32 21.23 21.23 0 0 0-3.4-6.3c.07.07.11.16.14.25Zm-7.44 0a.75.75 0 0 1 .11-.24 28.75 28.75 0 0 0-2.07 3.22c-.48.89-.9 1.9-1.3 3.06a.5.5 0 0 0 .94.32 20.24 20.24 0 0 1 2.12-4.4 4.77 4.77 0 0 1 .19-1.97Z" fill="#000"/><path d="M5.2 4.78a.75.75 0 0 0-.92.51c-.21.75-.27 1.4-.2 1.97.23 1.6 1.6 2.49 3.92 2.49 2.33 0 3.7-.89 3.92-2.5.07-.57.01-1.22-.2-1.96a.75.75 0 1 0-1.44.42c.52 1.83-.09 2.54-2.28 2.54-2.2 0-2.8-.71-2.28-2.54a.75.75 0 0 0-.51-.93Z" fill="#000" style="mix-blend-mode:overlay" opacity=".36"/></g><g transform="translate(14 26)"></g></g></svg>